<svg id="Glyph" xmlns="http://www.w3.org/2000/svg" viewBox="0 0 512 512"><g id="Glyph-2" data-name="Glyph"><path d="M327.28,45.92c-38.4-39.2-106-39.2-144.4,0-39.36,40.16-39.76,104.56,0,144.32C217.84,225.2,288.16,294.8,322.8,330.08c38.4,39.2,105.92,39.2,144.32,0,39.36-40.16,39.76-104.56,0-144.32C467.12,185.76,361.84,81.2,327.28,45.92ZM258.48,243.2s-48.16-48.24-64.24-64.24c-33.6-33.6-33.2-87.84,0-121.76,32.4-33.04,89.28-33.04,121.68,0,15.92,16.24,64.32,64.32,64.32,64.32Z"/><circle cx="284" cy="64" r="8"/><path d="M255.078,48a69.594,69.594,0,0,0-49.543,20.523,8,8,0,0,0,11.313,11.313A53.707,53.707,0,0,1,255.078,64a8,8,0,0,0,0-16Z"/><path d="M264,372A124,124,0,1,0,140,496,124.107,124.107,0,0,0,264,372ZM32.4,380a89.069,89.069,0,0,1,0-16H247.6a89.069,89.069,0,0,1,0,16Z"/></g></svg>